<svg width="30" height="30" viewBox="0 0 30 30" fill="none" xmlns="http://www.w3.org/2000/svg">
<path d="M5.4375 23.0625L5.59687 22.8403L13.1156 8.57716L13.1316 8.42622L9.8175 2.20122C9.75683 2.08739 9.6619 1.99552 9.54614 1.9386C9.43039 1.88168 9.29966 1.8626 9.17247 1.88406C9.04527 1.90552 8.92804 1.96643 8.83737 2.05817C8.74669 2.14992 8.68716 2.26785 8.66719 2.39529L5.4375 23.0625Z" fill="#FFC24A"/>
<path d="M5.53125 22.8937L5.65125 22.6594L13.0922 8.54436L9.78656 2.29499C9.73205 2.18631 9.64379 2.09821 9.53501 2.04391C9.42622 1.9896 9.30277 1.972 9.18314 1.99375C9.06352 2.0155 8.95416 2.07543 8.87145 2.16455C8.78875 2.25368 8.73714 2.3672 8.72437 2.48811L5.53125 22.8937Z" fill="#FFA712"/>
<path d="M15.5475 13.1344L18.015 10.6031L15.5466 5.89595C15.4922 5.79464 15.4114 5.70997 15.3128 5.65094C15.2142 5.5919 15.1014 5.56073 14.9864 5.56073C14.8714 5.56073 14.7586 5.5919 14.66 5.65094C14.5614 5.70997 14.4806 5.79464 14.4262 5.89595L13.1072 8.41032V8.62501L15.5475 13.1344Z" fill="#F4BD62"/>
<path d="M15.5034 13.0313L17.9025 10.575L15.5034 6.00002C15.4642 5.90099 15.3971 5.81544 15.3103 5.75367C15.2235 5.6919 15.1207 5.65655 15.0143 5.6519C14.9078 5.64724 14.8023 5.67347 14.7105 5.72742C14.6186 5.78137 14.5443 5.86074 14.4966 5.95596L13.1709 8.5144L13.1316 8.64471L15.5034 13.0313Z" fill="#FFA50E"/>
<path d="M5.43936 23.0634L5.51155 22.9903L5.77311 22.8844L15.3919 13.3012L15.5137 12.9694L13.1147 8.39624L5.43936 23.0634V23.0634Z" fill="#F6820C"/>
<path d="M15.855 27.8962L24.5625 23.0409L22.0744 7.73062C22.0565 7.62269 22.0093 7.52176 21.9379 7.43891C21.8664 7.35607 21.7736 7.29451 21.6694 7.26099C21.5653 7.22747 21.4539 7.2233 21.3476 7.24892C21.2412 7.27455 21.144 7.32898 21.0666 7.40624L5.4375 23.0625L14.0934 27.8953C14.3625 28.0455 14.6656 28.1243 14.9737 28.1243C15.2819 28.1243 15.585 28.0455 15.8541 27.8953" fill="#FDE068"/>
<path d="M24.4828 23.0007L22.0153 7.80565C22.011 7.70242 21.9761 7.6028 21.9151 7.5194C21.8541 7.436 21.7697 7.37257 21.6727 7.33714C21.5756 7.30171 21.4702 7.29587 21.3698 7.32036C21.2694 7.34485 21.1786 7.39856 21.1088 7.47471L5.53125 23.0335L14.0916 27.8147C14.3585 27.9636 14.6591 28.0418 14.9648 28.0418C15.2705 28.0418 15.5712 27.9636 15.8381 27.8147L24.4828 23.0007Z" fill="#FCCA3F"/>
<path d="M15.855 27.75C15.5859 27.9001 15.2829 27.979 14.9747 27.979C14.6665 27.979 14.3635 27.9001 14.0944 27.75L5.50875 22.9894L5.4375 23.0625L14.0934 27.8953C14.3625 28.0455 14.6656 28.1243 14.9737 28.1243C15.2819 28.1243 15.585 28.0455 15.8541 27.8953L24.5625 23.0409L24.5409 22.9097L15.855 27.75Z" fill="#EEAB37"/>
</svg>
