<svg width="34" height="30" viewBox="0 0 34 30" fill="none" xmlns="http://www.w3.org/2000/svg">
<g clip-path="url(#clip0_206_9)">
<path d="M20.6104 18.5853L19.97 19.6975C19.8752 19.8621 19.7387 19.9988 19.5742 20.0938C19.4098 20.1889 19.2232 20.2389 19.0332 20.2389H14.1265C13.9366 20.2389 13.75 20.1889 13.5855 20.0938C13.4211 19.9988 13.2846 19.8621 13.1897 19.6975L12.5492 18.5853H20.6103H20.6104ZM22.4035 15.4718L21.2742 17.4328H11.8855L10.7562 15.4718H22.4035V15.4718ZM21.3157 12.4272L22.4054 14.3193H10.7544L11.844 12.4272H21.3157V12.4272ZM19.0331 9.54901C19.2231 9.54898 19.4097 9.59901 19.5742 9.69406C19.7386 9.78912 19.8752 9.92583 19.97 10.0904L20.6519 11.2747H12.5078L13.1899 10.0904C13.2847 9.92585 13.4212 9.78915 13.5857 9.6941C13.7501 9.59905 13.9367 9.549 14.1267 9.54901H19.0332H19.0331Z" fill="#00435B"/>
<path d="M6.98561 9.03284C6.44209 6.39728 6.32535 4.3758 6.67674 2.90801C6.88569 2.03501 7.26761 1.32284 7.84856 0.808928C8.46187 0.266449 9.23717 0.000231872 10.1085 0.000231872C11.5456 0.000231872 13.0566 0.655667 14.6711 1.90067C15.3298 2.40858 16.0133 3.02071 16.7231 3.73745C16.7797 3.6648 16.8435 3.59619 16.9147 3.53267C18.9216 1.74441 20.6112 0.633101 22.0564 0.204754C22.9157 -0.050116 23.7225 -0.0743768 24.4571 0.172928C25.2327 0.433797 25.8505 0.973406 26.2866 1.72901C27.006 2.9761 27.1957 4.61475 26.9275 6.63819C26.8182 7.46293 26.6313 8.36123 26.3672 9.33467C26.4668 9.34667 26.5667 9.36884 26.6656 9.40158C29.2118 10.2455 31.015 11.1528 32.1066 12.1899C32.7561 12.8068 33.1802 13.4937 33.3336 14.2541C33.4953 15.0567 33.3375 15.8616 32.9021 16.6167C32.1839 17.8621 30.8634 18.8441 28.9823 19.6221C28.227 19.9344 27.3723 20.2174 26.4174 20.4718C26.461 20.5702 26.4949 20.6747 26.5174 20.7842C27.061 23.4198 27.1776 25.4413 26.8263 26.9091C26.6173 27.7821 26.2353 28.4942 25.6543 29.0081C25.0412 29.5506 24.2657 29.8168 23.3946 29.8168C21.9573 29.8168 20.4465 29.1614 18.832 27.9164C18.1662 27.403 17.4752 26.7833 16.7571 26.0567C16.6815 26.1748 16.5901 26.282 16.4853 26.3752C14.4784 28.1637 12.7888 29.2748 11.3436 29.7032C10.4843 29.9581 9.67752 29.9824 8.94291 29.7351C8.16735 29.4742 7.54948 28.9346 7.11343 28.179C6.39396 26.9319 6.2043 25.2932 6.47248 23.2698C6.58583 22.4153 6.78239 21.4817 7.06178 20.4674C6.95042 20.4561 6.84063 20.4326 6.73439 20.3974C4.18817 19.5534 2.38504 18.6461 1.29343 17.6091C0.643869 16.9921 0.219826 16.3052 0.0664342 15.5448C-0.0953049 14.7422 0.0625211 13.9372 0.497912 13.1821C1.21609 11.9368 2.53661 10.9547 4.41774 10.1769C5.19552 9.8551 6.07869 9.56475 7.06817 9.30441C7.03235 9.21662 7.00471 9.12571 6.98561 9.03284V9.03284Z" fill="#002B3B"/>
<path d="M24.7409 21.0434C24.8624 21.0219 24.9876 21.0479 25.0904 21.1162C25.1933 21.1844 25.2659 21.2896 25.2933 21.4099L25.2963 21.4245L25.3233 21.5648C26.1985 26.166 25.582 28.4667 23.4737 28.4667C21.4112 28.4667 18.7854 26.5035 15.5965 22.5772C15.5399 22.5074 15.5039 22.4231 15.4928 22.3339C15.4816 22.2448 15.4957 22.1542 15.5334 22.0726C15.5712 21.9911 15.631 21.9217 15.7062 21.8724C15.7814 21.8232 15.8689 21.796 15.9587 21.7939H15.9736L16.1416 21.7951C17.4835 21.8024 18.788 21.7556 20.0552 21.6548C21.5509 21.5357 23.1128 21.3319 24.7409 21.0434V21.0434ZM10.2625 17.5652L10.2706 17.5789L10.3549 17.7259C11.0301 18.8999 11.7336 20.014 12.4653 21.0686C13.3272 22.3103 14.2963 23.5675 15.3727 24.84C15.4526 24.9344 15.493 25.056 15.4855 25.1795C15.478 25.303 15.4231 25.4188 15.3324 25.5029L15.3203 25.5137L15.212 25.6069C11.6502 28.6587 9.33526 29.268 8.26713 27.4346C7.22143 25.6402 7.60061 22.3772 9.40439 17.6459C9.43632 17.562 9.49109 17.4888 9.56249 17.4345C9.63389 17.3802 9.71907 17.347 9.80838 17.3386C9.89769 17.3302 9.98756 17.347 10.0678 17.387C10.1481 17.4271 10.2155 17.4888 10.2625 17.5652V17.5652ZM26.5482 10.7756L26.5628 10.7804L26.6969 10.8266C31.0932 12.3559 32.7634 14.0366 31.7077 15.8685C30.6752 17.6602 27.6733 18.9648 22.7023 19.7821C22.6123 19.7969 22.5198 19.7858 22.4358 19.75C22.3518 19.7141 22.2798 19.6551 22.2282 19.5798C22.1765 19.5045 22.1474 19.4161 22.1442 19.3248C22.141 19.2336 22.1639 19.1433 22.2102 19.0646C22.9221 17.8534 23.5635 16.6484 24.134 15.4493C24.781 14.0895 25.3881 12.6299 25.9555 11.0706C25.9967 10.9573 26.0791 10.8636 26.1861 10.8082C26.2932 10.7527 26.4173 10.7395 26.5336 10.7713L26.5482 10.7756V10.7756ZM11.019 10.0056C11.0734 10.0376 11.121 10.08 11.1591 10.1303C11.1971 10.1806 11.2248 10.238 11.2407 10.2991C11.2566 10.3601 11.2603 10.4237 11.2515 10.4862C11.2428 10.5487 11.2219 10.6089 11.1899 10.6633C10.4777 11.8744 9.83652 13.0795 9.266 14.2785C8.61904 15.6383 8.01187 17.0979 7.44448 18.6572C7.40235 18.773 7.31735 18.8682 7.20705 18.9231C7.09674 18.978 6.96956 18.9885 6.85178 18.9523L6.83717 18.9475L6.70308 18.9012C2.30678 17.3719 0.636562 15.6912 1.6923 13.8593C2.72482 12.0675 5.72665 10.7631 10.6976 9.94576C10.8085 9.9275 10.9223 9.94863 11.019 10.0056ZM25.1329 2.47329C26.1786 4.26781 25.7994 7.53076 23.9956 12.2622C23.9637 12.346 23.9089 12.4192 23.8375 12.4735C23.7661 12.5278 23.6809 12.561 23.5916 12.5694C23.5023 12.5778 23.4124 12.561 23.3322 12.521C23.2519 12.4809 23.1845 12.4192 23.1375 12.3428L23.1294 12.3291L23.0451 12.1821C22.3699 11.0082 21.6664 9.89398 20.9347 8.83942C20.0728 7.59768 19.1036 6.34055 18.0273 5.06803C17.9474 4.97359 17.907 4.85198 17.9145 4.72851C17.922 4.60504 17.9769 4.48922 18.0676 4.40516L18.0797 4.39433L18.188 4.30107C21.7498 1.24929 24.0647 0.640026 25.1329 2.47329V2.47329ZM10.1065 1.38129C12.1692 1.38129 14.795 3.34433 17.9837 7.27068C18.0404 7.34046 18.0763 7.42474 18.0875 7.51393C18.0986 7.60312 18.0845 7.69365 18.0468 7.77523C18.0091 7.85682 17.9492 7.92618 17.8741 7.97545C17.7989 8.02472 17.7114 8.05191 17.6215 8.05394H17.6066L17.4386 8.0529C16.0969 8.04559 14.7923 8.09242 13.5252 8.19324C12.0294 8.31233 10.4674 8.51607 8.83934 8.80459C8.71784 8.82609 8.59272 8.80002 8.4899 8.73179C8.38709 8.66356 8.31447 8.55839 8.28708 8.43807L8.28395 8.42333L8.25695 8.28324C7.38174 3.6819 7.99817 1.38129 10.1065 1.38129Z" fill="#FF4154"/>
<path d="M14.5211 9.60913H18.6397C18.9356 9.60912 19.2263 9.6872 19.4824 9.83549C19.7384 9.98378 19.9508 10.197 20.0981 10.4537L22.1661 14.0571C22.3123 14.3118 22.3892 14.6004 22.3892 14.8941C22.3892 15.1878 22.3123 15.4764 22.1661 15.7311L20.0981 19.3345C19.9508 19.5911 19.7384 19.8044 19.4823 19.9526C19.2263 20.1009 18.9356 20.179 18.6397 20.179H14.5211C13.9187 20.179 13.3624 19.8569 13.0626 19.3345L10.9948 15.7311C10.8486 15.4764 10.7717 15.1878 10.7717 14.8941C10.7717 14.6004 10.8486 14.3118 10.9948 14.0571L13.0627 10.4537C13.21 10.197 13.4224 9.98379 13.6785 9.83549C13.9346 9.6872 14.2253 9.60912 14.5212 9.60913H14.5211ZM18.0119 10.6967C18.6145 10.6967 19.1712 11.0193 19.4708 11.542L20.9129 14.0579C21.0588 14.3124 21.1356 14.6007 21.1356 14.8941C21.1356 15.1875 21.0588 15.4758 20.9129 15.7303L19.4708 18.2461C19.3236 18.503 19.1111 18.7164 18.855 18.8648C18.5988 19.0132 18.308 19.0914 18.0119 19.0913H15.1489C14.5463 19.0913 13.9896 18.7689 13.69 18.2461L12.2479 15.7303C12.102 15.4758 12.0252 15.1875 12.0252 14.8941C12.0252 14.6007 12.102 14.3124 12.2479 14.0579L13.69 11.542C13.8372 11.2852 14.0496 11.0718 14.3058 10.9234C14.5619 10.775 14.8527 10.6968 15.1487 10.6968H18.0119V10.6967ZM17.3354 11.8863H15.8254C15.5296 11.8863 15.2391 11.9643 14.9831 12.1124C14.7271 12.2606 14.5147 12.4737 14.3673 12.7302L13.6053 14.0563C13.4588 14.3112 13.3818 14.6001 13.3818 14.8941C13.3818 15.1881 13.4588 15.477 13.6053 15.7319L14.3673 17.0581C14.5147 17.3146 14.7271 17.5277 14.9831 17.6759C15.2391 17.824 15.5296 17.9021 15.8254 17.902H17.3354C17.9374 17.902 18.4936 17.5801 18.7935 17.0581L19.5555 15.7319C19.702 15.477 19.779 15.1881 19.779 14.8941C19.779 14.6001 19.702 14.3112 19.5555 14.0563L18.7935 12.73C18.6461 12.4736 18.4337 12.2605 18.1777 12.1123C17.9217 11.9641 17.6312 11.8861 17.3354 11.8861V11.8863ZM16.684 13.0248C17.2855 13.0248 17.8413 13.3462 18.1413 13.8674L18.2494 14.0553C18.3963 14.3104 18.4736 14.5997 18.4736 14.8941C18.4736 15.1885 18.3963 15.4777 18.2494 15.7329L18.1413 15.9207C17.9939 16.1769 17.7815 16.3896 17.5257 16.5375C17.2698 16.6855 16.9795 16.7634 16.684 16.7633H16.4768C16.1813 16.7634 15.891 16.6855 15.6351 16.5375C15.3793 16.3896 15.1669 16.1769 15.0195 15.9207L14.9114 15.7329C14.7645 15.4777 14.6872 15.1885 14.6872 14.8941C14.6872 14.5997 14.7645 14.3104 14.9114 14.0553L15.0195 13.8674C15.1669 13.6113 15.3793 13.3986 15.6351 13.2506C15.891 13.1027 16.1813 13.0248 16.4768 13.0248H16.684ZM16.5807 14.1464C16.4493 14.1464 16.3202 14.1809 16.2065 14.2465C16.0927 14.3121 15.9981 14.4065 15.9324 14.5203C15.8667 14.6339 15.8322 14.7628 15.8322 14.8941C15.8322 15.0253 15.8667 15.1543 15.9324 15.2679C15.9981 15.3816 16.0926 15.4761 16.2063 15.5417C16.3201 15.6074 16.4491 15.642 16.5805 15.642C16.7118 15.642 16.8408 15.6074 16.9546 15.5417C17.0684 15.4761 17.1628 15.3816 17.2285 15.2679C17.2942 15.1543 17.3288 15.0253 17.3288 14.8941C17.3288 14.7628 17.2942 14.6339 17.2285 14.5203C17.1628 14.4066 17.0684 14.3122 16.9547 14.2466C16.8409 14.181 16.712 14.1464 16.5807 14.1464V14.1464ZM10.5143 14.8941H11.8604Z" fill="#FFD94C"/>
</g>
<defs>
<clipPath id="clip0_206_9">
<rect width="33.4" height="30" fill="white"/>
</clipPath>
</defs>
</svg>
