<svg width="85" height="30" viewBox="0 0 85 30" fill="none" xmlns="http://www.w3.org/2000/svg">
<g clip-path="url(#clip0_206_14)">
<path d="M6.42088 0C7.81605 0 8.94616 1.12995 8.94616 2.52495C8.94616 3.56506 8.31599 4.45863 7.41599 4.84615L7.38863 4.85769V5.92154C7.38863 6.9483 8.15182 7.82242 9.1672 7.96516L9.19803 7.96929L9.50297 8.00918C11.153 8.21786 12.4321 9.40418 12.7601 11.0344C13.0881 12.6648 12.3724 14.2553 10.9309 15.0903C10.2898 15.4606 9.57742 15.6909 8.84083 15.766L8.80358 15.7696L4.22083 16.2005C3.75695 16.2433 3.30802 16.3869 2.90544 16.6213C2.07369 17.1018 1.91116 17.9334 2.03709 18.5499C2.16187 19.1599 2.62753 19.8546 3.55951 19.9841L3.89281 20.0276C5.9005 20.277 7.41781 21.9781 7.44797 23.9959L7.4483 24.057V25.0446C8.33314 25.4355 8.95275 26.3237 8.95275 27.3542C8.95275 28.7492 7.82281 29.8792 6.42781 29.8792C5.03264 29.8792 3.9027 28.7492 3.9027 27.3542C3.9027 26.3174 4.52956 25.4238 5.42627 25.0363L5.45347 25.0248V24.0572C5.45347 23.0303 4.69028 22.1562 3.67506 22.0132L3.64423 22.0093L3.33929 21.9696C1.68929 21.7607 0.410169 20.5744 0.0821472 18.9442C-0.249172 17.314 0.469839 15.7233 1.91116 14.8882C2.55239 14.518 3.26478 14.2877 4.00143 14.2126L4.03852 14.209L8.62143 13.7782C9.08533 13.7354 9.53426 13.5917 9.93682 13.3573C10.7686 12.8769 10.9309 12.0452 10.805 11.4287C10.6804 10.8186 10.2149 10.124 9.28275 9.99445L8.94946 9.95093C6.94176 9.70154 5.42446 8.0006 5.39429 5.98269L5.39396 5.92154V4.83132C4.51242 4.43703 3.8961 3.5522 3.8961 2.52495C3.89594 1.12995 5.02588 0 6.42088 0ZM9.45632 16.8963L10.8713 18.447C11.9242 19.6052 12.5097 21.0976 12.5213 22.6579V22.7052H10.5235C10.5241 21.639 10.1305 20.6101 9.41841 19.8165L9.39682 19.7924L6.99105 17.1547L8.91303 16.9726L8.97369 16.9658C9.11775 16.9493 9.26149 16.9305 9.40325 16.9058L9.45649 16.8963H9.45632ZM2.14308 7.19736C2.14248 8.26354 2.53599 9.29232 3.24797 10.0859L3.26973 10.11L5.68193 12.7543L3.90583 12.9231L3.85308 12.928C3.66004 12.9464 3.46804 12.9745 3.27781 13.0121L3.22671 13.0225L1.79841 11.4551C0.747076 10.3036 0.159295 8.80368 0.148411 7.24451L0.148246 7.1972H2.14308V7.19736ZM29.8385 7.86989L29.8776 7.87055L29.9171 7.87137C30.574 7.89016 31.733 8.07082 32.675 9.00313C33.3212 9.6394 33.7222 10.5341 33.8115 11.5216C33.8945 12.4627 33.6891 13.3971 33.2284 14.1526C32.4444 15.4484 31.1439 15.9031 30.6035 16.0406L30.5348 16.0581L31.8101 17.6685C32.917 18.8679 33.5232 20.4221 33.5232 22.0391V22.7018H31.6046V22.0391C31.6046 20.8925 31.1706 19.7957 30.3787 18.9475L30.3521 18.9211L28.5363 16.6312L28.6689 16.5262C28.0385 16.6812 27.4182 16.8366 26.8102 16.9894L26.1139 17.1648C25.2856 17.3735 24.4372 17.5889 23.5624 17.8043L23.5426 22.7018L21.6207 22.6952L21.6571 10.4545C21.6604 9.04962 22.8202 7.90962 24.245 7.90962H24.2549C25.0407 7.91786 25.806 7.90797 26.5527 7.89692L27.5473 7.88209C28.2874 7.87121 29.049 7.86181 29.8385 7.86989V7.86989ZM27.7527 9.80126L26.3938 9.82137C25.6965 9.83126 24.9795 9.83918 24.2417 9.83159C23.8774 9.83489 23.5824 10.1166 23.5791 10.4613L23.5626 15.8227L23.8441 15.7525L24.1474 15.6765C24.6518 15.5501 25.1486 15.4245 25.6369 15.3023L25.8996 15.2357C26.822 15.0016 27.7745 14.763 28.7516 14.5269L30.1417 14.1753L30.1609 14.1704C30.4843 14.0835 31.175 13.8231 31.5782 13.1585C32.0984 12.3003 31.9791 11.0245 31.3164 10.3685C30.8046 9.86324 30.1079 9.79648 29.8206 9.79203L29.812 9.79187C29.1991 9.78527 28.5958 9.79022 28.0051 9.7978L27.7527 9.8011V9.80126ZM47.2717 22.3671H40.5615C38.2486 22.3671 36.3665 20.4851 36.3665 18.1721V12.0219C36.3665 9.70896 38.2486 7.82687 40.5615 7.82687H44.1502C46.4631 7.82687 48.3452 9.70896 48.3452 12.0219V12.9895C48.3452 14.7689 46.8971 16.217 45.1177 16.217H38.2885V18.1754C38.2885 19.428 39.3091 20.4485 40.5615 20.4485H47.2718V22.3671H47.2717ZM38.2883 14.2952H45.121C45.8402 14.2952 46.4265 13.7085 46.4265 12.9897V12.0219C46.4265 10.7693 45.4062 9.74885 44.1535 9.74885H40.5615C39.3088 9.74885 38.2885 10.7693 38.2885 12.0219V14.295L38.2883 14.2952ZM57.9019 22.5262H54.3131C52.0003 22.5262 50.118 20.6441 50.118 18.3312V12.1777C50.118 9.86473 52.0003 7.98264 54.3131 7.98264H57.9019C60.2148 7.98264 62.0969 9.86473 62.0969 12.1777V13.1387H60.1749V12.1777C60.1749 10.9251 59.1545 9.90462 57.9019 9.90462H54.3131C53.0607 9.90462 52.04 10.9251 52.04 12.1777V18.331C52.04 19.5837 53.0607 20.6042 54.3131 20.6042H57.9019C59.1545 20.6042 60.1749 19.5837 60.1749 18.3312V17.3702H62.0969V18.3312C62.0969 20.6441 60.2148 22.5262 57.9019 22.5262V22.5262ZM71.9584 22.3671H68.3697C66.0568 22.3671 64.1747 20.4851 64.1747 18.1721V12.0219C64.1747 9.70896 66.0568 7.82687 68.3697 7.82687H71.9584C74.2713 7.82687 76.1534 9.70896 76.1534 12.0219V18.1754C76.1501 20.4884 74.2713 22.3671 71.9584 22.3671ZM68.3697 9.74868C67.117 9.74868 66.0967 10.7693 66.0967 12.0219V18.1754C66.0967 19.428 67.117 20.4485 68.3697 20.4485H71.9584C73.2109 20.4485 74.2314 19.428 74.2314 18.1754V12.0219C74.2314 10.7693 73.2109 9.74885 71.9584 9.74885H68.3697V9.74868ZM78.3172 9.03626H80.2392V22.1319H78.3172V9.03626V9.03626ZM78.3172 4.93071H80.2392V6.73005H78.3172V4.93071V4.93071ZM82.476 4.86775H84.3978V22.1352H82.4758V4.86758L82.476 4.86775Z" fill="white"/>
</g>
<defs>
<clipPath id="clip0_206_14">
<rect width="84.4" height="30" fill="white"/>
</clipPath>
</defs>
</svg>
